<svg xmlns="http://www.w3.org/2000/svg" version="1.1" xmlns:xlink="http://www.w3.org/1999/xlink" xmlns:svgjs="http://svgjs.dev/svgjs" width="100%" height="100%" viewBox="0 0 1000 600"><rect width="1000" height="600" x="0" y="0" fill="#ffffff"/><g><rect width="333.3333333333333" height="333.3333333333333" rx="13.333333333333334" ry="13.333333333333334" y="320.0270707698911" fill="#66cc8a" transform="matrix(0.41973793022881667,0,0,0.41973793022881656,0,95.7161746334526)" x="297.80487060546875"/><path d="M413.2512992778153 549.9079993204991Q413.2512992778153 550.9794278594898 412.50725168129395 551.5151421289852Q411.7632040847727 552.0508563984804 410.69177554578204 551.6341897444286L410.69177554578204 551.6341897444286L324.32273054158964 511.33657191683494Q322.83463534854707 510.4734767048703 322.83463534854707 508.98538151182765L322.83463534854707 508.98538151182765L322.83463534854707 498.6877627759729Q322.83463534854707 497.19966758293026 324.32273054158964 496.3365723709656L324.32273054158964 496.3365723709656L410.69177554578204 456.03895454337203L411.5548707577467 455.83062121634606Q413.2512992778153 455.83062121634606 413.2512992778153 457.7651449673014L413.2512992778153 457.7651449673014L413.2512992778153 468.27109703018215Q413.2512992778153 469.96752555025074 411.5548707577467 470.6222874351895L411.5548707577467 470.6222874351895L339.32273008745904 503.18181025896155Q338.0429682214424 503.83657214390024 339.32273008745904 504.491334028839L339.32273008745904 504.491334028839L411.5548707577467 537.0508568526111Q413.2512992778153 537.7056187375498 413.2512992778153 539.4020472576183L413.2512992778153 539.4020472576183L413.2512992778153 549.9079993204991ZM430.39415590166607 561.6937132493965Q428.0429654966587 561.6937132493965 428.6977273815975 559.3425228443891L428.6977273815975 559.3425228443891L476.0489164242129 413.419908214632Q476.6739164052908 411.69371779070264 478.60844015624616 411.69371779070264L478.60844015624616 411.69371779070264L489.3227255461529 411.69371779070264Q491.6739159511602 411.69371779070264 491.0489159700823 414.0449081957099L491.0489159700823 414.0449081957099L443.6977269274669 559.9675228254671Q443.0429650425281 561.6937132493965 441.1084412915727 561.6937132493965L441.1084412915727 561.6937132493965L430.39415590166607 561.6937132493965ZM518.251296098901 551.6341897444286L517.3882008869364 551.8425230714545Q515.6917723668678 551.8425230714545 515.6917723668678 549.9079993204991L515.6917723668678 549.9079993204991L515.6917723668678 539.4020472576183Q515.6917723668678 537.7056187375498 517.3882008869364 537.0508568526111L517.3882008869364 537.0508568526111L589.620341557224 504.491334028839Q590.9001034232406 503.83657214390024 589.620341557224 503.18181025896155L589.620341557224 503.18181025896155L517.3882008869364 470.6222874351895Q515.6917723668678 469.96752555025074 515.6917723668678 468.27109703018215L515.6917723668678 468.27109703018215L515.6917723668678 457.7651449673014Q515.6917723668678 456.6937164283108 516.435819963389 456.1580021588154Q517.1798675599103 455.6222878893201 518.251296098901 456.03895454337203L518.251296098901 456.03895454337203L604.6203411030933 496.3365723709656Q606.108436296136 497.19966758293026 606.108436296136 498.6877627759729L606.108436296136 498.6877627759729L606.108436296136 508.98538151182765Q606.108436296136 510.4734767048703 604.6203411030933 511.33657191683494L604.6203411030933 511.33657191683494L518.251296098901 551.6341897444286Z " fill="#ffffff" transform="matrix(0.41973793022881667,0,0,0.41973793022881656,0,95.7161746334526)"/><path d="M759.528834970847 413.18340528412136Q774.0590113549964 413.18340528412136 782.8825411781786 422.09860814442754Q791.7060710013609 430.9908927454527 791.7060710013609 445.52106912960215L791.7060710013609 445.52106912960215Q791.7060710013609 459.8678994395036 782.7221133632117 468.62267448484283Q773.7152374657815 477.3774495301821 759.0246332666652 477.3774495301821L759.0246332666652 477.3774495301821L726.8473972361513 477.3774495301821Q726.2056859762836 477.3774495301821 726.2056859762836 478.01916079004985L726.2056859762836 478.01916079004985L726.2056859762836 527.2017452070604Q726.2056859762836 528.8518598752919 724.5555713080521 528.8518598752919L724.5555713080521 528.8518598752919L716.1216518926467 528.8518598752919Q714.4715372244152 528.8518598752919 714.4715372244152 527.2017452070604L714.4715372244152 527.2017452070604L714.4715372244152 414.83351995235284Q714.4715372244152 413.18340528412136 716.1216518926467 413.18340528412136L716.1216518926467 413.18340528412136L759.528834970847 413.18340528412136ZM758.1995759325494 467.6371893357602Q767.9398361269714 467.6371893357602 774.0590113549964 461.60968714485904Q780.1552683237405 455.58218495395795 780.1552683237405 445.6814969445691L780.1552683237405 445.6814969445691Q780.1552683237405 435.62038112021327 774.0590113549964 429.5241241514692Q767.9398361269714 423.4049489234441 758.1995759325494 423.4049489234441L758.1995759325494 423.4049489234441L726.8473972361513 423.4049489234441Q726.2056859762836 423.4049489234441 726.2056859762836 424.0695784425929L726.2056859762836 424.0695784425929L726.2056859762836 466.97255981661135Q726.2056859762836 467.6371893357602 726.8473972361513 467.6371893357602L726.8473972361513 467.6371893357602L758.1995759325494 467.6371893357602ZM844.6701681997351 444.53558398051945Q850.1247139086114 444.53558398051945 854.0895727642232 446.66698209365177L854.0895727642232 446.66698209365177Q855.3959135432398 447.33161161280054 855.0750579133058 448.8212984660651L855.0750579133058 448.8212984660651L853.2645154301074 456.91144399225556Q852.7603137259256 458.56155866048704 851.1101990576941 457.89692914133826L851.1101990576941 457.89692914133826Q848.314171425413 456.7510161772886 844.6701681997351 456.7510161772886L844.6701681997351 456.7510161772886L842.5387700866029 456.91144399225556Q833.9444228562305 457.23229962218943 828.3294493323873 463.2598018130905Q822.7373940678251 469.28730400399166 822.7373940678251 478.5233624942317L822.7373940678251 478.5233624942317L822.7373940678251 527.2017452070604Q822.7373940678251 528.8518598752919 821.0872793995936 528.8518598752919L821.0872793995936 528.8518598752919L812.6533599841882 528.8518598752919Q811.0032453159567 528.8518598752919 811.0032453159567 527.2017452070604L811.0032453159567 527.2017452070604L811.0032453159567 447.01075598286667Q811.0032453159567 445.3606413146352 812.6533599841882 445.3606413146352L812.6533599841882 445.3606413146352L821.0872793995936 445.3606413146352Q822.7373940678251 445.3606413146352 822.7373940678251 447.01075598286667L822.7373940678251 447.01075598286667L822.7373940678251 457.0718718072225Q822.7373940678251 457.57607351140433 822.9665766606349 457.6448282892473Q823.2186775127259 457.7365013263713 823.3791053276929 457.3927274371564L823.3791053276929 457.3927274371564Q826.8626807384037 451.29647046841234 832.2255534101561 447.9045680948254Q837.5884260819084 444.53558398051945 844.6701681997351 444.53558398051945L844.6701681997351 444.53558398051945ZM902.103325957903 530.1811189135894Q890.2087493910677 530.1811189135894 881.6373204199765 524.0619436855643Q873.0658914488852 517.9656867168203 869.7656621124222 507.2399413733157L869.7656621124222 507.2399413733157Q867.450917925042 499.65399755130704 867.450917925042 486.9343636503561L867.450917925042 486.9343636503561Q867.450917925042 474.2376480086861 869.7656621124222 466.81213200164444L869.7656621124222 466.81213200164444Q872.8825453746372 456.2468144731068 881.4768926050095 450.15055750436267Q890.0483215761008 444.03138227633764 902.2637537728699 444.03138227633764L902.2637537728699 444.03138227633764Q913.9749842654574 444.03138227633764 922.4776584587056 450.15055750436267Q930.9803326519539 456.2468144731068 934.1201341734499 466.6517041866775L934.1201341734499 466.6517041866775Q936.4119601015492 473.73344630450424 936.4119601015492 486.9343636503561L936.4119601015492 486.9343636503561Q936.4119601015492 500.29570881117485 934.1201341734499 507.2399413733157L934.1201341734499 507.2399413733157Q930.9803326519539 517.9656867168203 922.4776584587056 524.0619436855643Q913.9749842654574 530.1811189135894 902.103325957903 530.1811189135894L902.103325957903 530.1811189135894ZM902.103325957903 519.9366570149857Q910.0101254098455 519.9366570149857 915.6250989336887 515.559269492316Q921.2400724575319 511.2048002289274 923.2110427556973 503.77928422188575L923.2110427556973 503.77928422188575Q924.7007296089619 497.8205368088276 924.7007296089619 487.094791465323L924.7007296089619 487.094791465323Q924.7007296089619 476.20861830685146 923.3943888299453 470.4332169680413L923.3943888299453 470.4332169680413Q921.4005002724989 463.0077009609996 915.7167719708127 458.63031343833Q910.0101254098455 454.27584417494137 901.9428981429361 454.27584417494137L901.9428981429361 454.27584417494137Q893.8527526167456 454.27584417494137 888.2377790929024 458.63031343833Q882.6228055690592 463.0077009609996 880.6518352708938 470.4332169680413L880.6518352708938 470.4332169680413Q879.3225762325962 476.20861830685146 879.3225762325962 487.094791465323L879.3225762325962 487.094791465323Q879.3225762325962 498.00388288307556 880.6518352708938 503.77928422188575L880.6518352708938 503.77928422188575Q882.4623777540922 511.2048002289274 888.1461060557784 515.559269492316Q893.8527526167456 519.9366570149857 902.103325957903 519.9366570149857L902.103325957903 519.9366570149857ZM1011.6755235803294 447.01075598286667Q1011.6755235803294 445.3606413146352 1013.325638248561 445.3606413146352L1013.325638248561 445.3606413146352L1021.7366394046853 445.3606413146352Q1023.3867540729168 445.3606413146352 1023.3867540729168 447.01075598286667L1023.3867540729168 447.01075598286667L1023.3867540729168 526.0558322430107Q1023.3867540729168 544.5279492234909 1012.729763507255 553.0993781945822Q1002.0956912008744 561.6937254249544 983.4402281461464 561.6937254249544L983.4402281461464 561.6937254249544Q979.6587153647826 561.6937254249544 977.6648268073361 561.5332976099876L977.6648268073361 561.5332976099876Q976.0147121391046 561.3499515357396 976.0147121391046 559.6998368675081L976.0147121391046 559.6998368675081L976.3584860283196 552.1138930454995Q976.3584860283196 551.2888357113839 976.8397694732205 550.8763070443258Q977.3439711774022 550.463778377268 978.0086006965511 550.6242061922351L978.0086006965511 550.6242061922351L982.4547429970637 550.8075522664828Q997.8099767153287 550.8075522664828 1004.7312910181886 544.7800500755818Q1011.6755235803294 538.7525478846808 1011.6755235803294 525.7120583537958L1011.6755235803294 525.7120583537958L1011.6755235803294 519.6158013850518Q1011.6755235803294 519.2720274958369 1011.4234227282386 519.203272717994Q1011.1713218761477 519.1115996808699 1010.8504662462137 519.4553735700848L1010.8504662462137 519.4553735700848Q1003.2416041649241 529.3560615794737 989.2156294849565 529.3560615794737L989.2156294849565 529.3560615794737Q978.489884141452 529.3560615794737 970.1705560224515 523.5806602406635Q961.8283096441702 517.8052589018533 959.032282011889 507.2399413733157L959.032282011889 507.2399413733157Q957.0383934544427 500.4790548854228 957.0383934544427 487.094791465323L957.0383934544427 487.094791465323Q957.0383934544427 479.8526215325293 957.4509221215005 474.9022775278349Q957.8634507885583 469.95193352314044 959.192709826856 465.9870746675287L959.192709826856 465.9870746675287Q962.172083533385 456.0863866581398 969.9184551703606 450.05888446723867Q977.6648268073361 444.03138227633764 988.5739182250887 444.03138227633764L988.5739182250887 444.03138227633764Q1003.2416041649241 444.03138227633764 1010.8504662462137 453.77164247075956L1010.8504662462137 453.77164247075956Q1011.1713218761477 454.09249810069343 1011.4234227282386 453.93207028572647Q1011.6755235803294 453.77164247075956 1011.6755235803294 453.45078684082563L1011.6755235803294 453.45078684082563L1011.6755235803294 447.01075598286667ZM1010.8504662462137 503.5959381476378Q1011.3317496911145 501.1207661452906 1011.4921775060816 497.49968117889375Q1011.6755235803294 493.8785962124969 1011.6755235803294 486.9343636503561L1011.6755235803294 486.9343636503561Q1011.6755235803294 478.5233624942317 1011.4921775060816 475.6356618248266Q1011.3317496911145 472.74796115542154 1010.6671201719657 470.2727891530743L1010.6671201719657 470.2727891530743Q1009.3607793929491 463.3514748502145 1004.1583345361638 458.81365951257794Q998.9558896793785 454.27584417494137 991.049090227436 454.27584417494137L991.049090227436 454.27584417494137Q983.2798003311793 454.27584417494137 977.9169276594271 458.721986475454Q972.5540549876748 463.1681287759666 970.4226568745424 470.2727891530743L970.4226568745424 470.2727891530743Q968.772542206311 475.5439887877027 968.772542206311 486.7739358353891L968.772542206311 486.7739358353891Q968.772542206311 498.8289402171913 970.4226568745424 503.43551033267084L970.4226568745424 503.43551033267084Q972.0727715427739 510.37974289481167 977.5960720294931 514.9175582324483Q983.1193725162125 519.4553735700848 991.049090227436 519.4553735700848L991.049090227436 519.4553735700848Q999.1163174943454 519.4553735700848 1004.3187623511308 514.9863130102913Q1009.5212072079162 510.54017070977864 1010.8504662462137 503.5959381476378L1010.8504662462137 503.5959381476378ZM1082.1262526101013 444.53558398051945Q1087.5807983189775 444.53558398051945 1091.5227389153083 446.66698209365177L1091.5227389153083 446.66698209365177Q1092.8519979536059 447.33161161280054 1092.531142323672 448.8212984660651L1092.531142323672 448.8212984660651L1090.6976815811925 456.91144399225556Q1090.2163981362917 458.56155866048704 1088.5662834680602 457.89692914133826L1088.5662834680602 457.89692914133826Q1085.747337576498 456.7510161772886 1082.1262526101013 456.7510161772886L1082.1262526101013 456.7510161772886L1079.971936237688 456.91144399225556Q1071.4005072665966 457.23229962218943 1065.7855337427534 463.2598018130905Q1060.1705602189102 469.28730400399166 1060.1705602189102 478.5233624942317L1060.1705602189102 478.5233624942317L1060.1705602189102 527.2017452070604Q1060.1705602189102 528.8518598752919 1058.5204455506787 528.8518598752919L1058.5204455506787 528.8518598752919L1050.1094443945544 528.8518598752919Q1048.459329726323 528.8518598752919 1048.459329726323 527.2017452070604L1048.459329726323 527.2017452070604L1048.459329726323 447.01075598286667Q1048.459329726323 445.3606413146352 1050.1094443945544 445.3606413146352L1050.1094443945544 445.3606413146352L1058.5204455506787 445.3606413146352Q1060.1705602189102 445.3606413146352 1060.1705602189102 447.01075598286667L1060.1705602189102 447.01075598286667L1060.1705602189102 457.0718718072225Q1060.1705602189102 457.57607351140433 1060.4226610710011 457.6448282892473Q1060.6747619230919 457.7365013263713 1060.835189738059 457.3927274371564L1060.835189738059 457.3927274371564Q1064.295846889489 451.29647046841234 1069.6587195612412 447.9045680948254Q1075.0215922329935 444.53558398051945 1082.1262526101013 444.53558398051945L1082.1262526101013 444.53558398051945ZM1137.084238365922 444.03138227633764Q1151.935270380005 444.03138227633764 1160.0024976469147 451.6173260983462Q1168.092643173105 459.2261881796358 1168.092643173105 471.7624760063389L1168.092643173105 471.7624760063389L1168.092643173105 527.2017452070604Q1168.092643173105 528.8518598752919 1166.4425285048735 528.8518598752919L1166.4425285048735 528.8518598752919L1158.0315273487495 528.8518598752919Q1156.3814126805178 528.8518598752919 1156.3814126805178 527.2017452070604L1156.3814126805178 527.2017452070604L1156.3814126805178 520.4408587191675Q1156.3814126805178 520.0970848299526 1156.1293118284268 519.9366570149857Q1155.8772109763358 519.7762292000186 1155.5563553464021 520.0970848299526L1155.5563553464021 520.0970848299526Q1151.4310686758233 525.047428834647 1144.8306100028974 527.6142738741182Q1138.2301513299715 530.1811189135894 1130.1400058037812 530.1811189135894L1130.1400058037812 530.1811189135894Q1118.428775311194 530.1811189135894 1110.4990575999702 524.2223715005314Q1102.5922581480277 518.2865423467542 1102.5922581480277 506.07111014998503L1102.5922581480277 506.07111014998503Q1102.5922581480277 493.6952501382489 1111.5762157861768 486.5218349832982Q1120.583091683607 479.34841982834746 1136.58003666174 479.34841982834746L1136.58003666174 479.34841982834746L1155.716783161369 479.34841982834746Q1156.3814126805178 479.34841982834746 1156.3814126805178 478.6837903091987L1156.3814126805178 478.6837903091987L1156.3814126805178 472.42710552548766Q1156.3814126805178 463.9931861100823 1151.6831695279143 459.1345151425118Q1146.9849263753108 454.27584417494137 1137.084238365922 454.27584417494137L1137.084238365922 454.27584417494137Q1129.1545206546984 454.27584417494137 1124.204176650004 457.3239726593134Q1119.2538326453096 460.3721011436855 1118.1079196812598 465.82664685256174L1118.1079196812598 465.82664685256174Q1117.603717977078 467.4767615207932 1116.1140311238134 467.2934154465453L1116.1140311238134 467.2934154465453L1107.1988282635073 466.1475024824956Q1105.388285780309 465.82664685256174 1105.7320596695238 464.81824344419806L1105.7320596695238 464.81824344419806Q1107.0384004485404 455.58218495395795 1115.6327476789127 449.80678361514776Q1124.204176650004 444.03138227633764 1137.084238365922 444.03138227633764L1137.084238365922 444.03138227633764ZM1132.4547499911614 520.0970848299526Q1142.1950101855832 520.0970848299526 1149.27675230341 515.2384138623822Q1156.3814126805178 510.37974289481167 1156.3814126805178 502.1291695536543L1156.3814126805178 502.1291695536543L1156.3814126805178 489.24910783773635Q1156.3814126805178 488.58447831858757 1155.716783161369 488.58447831858757L1155.716783161369 488.58447831858757L1138.3905791449383 488.58447831858757Q1127.504405986467 488.58447831858757 1120.9039473135408 493.0535388783812Q1114.3034886406151 497.49968117889375 1114.3034886406151 505.4293988901172L1114.3034886406151 505.4293988901172Q1114.3034886406151 512.671568822911 1119.3455056824334 516.3843268264318Q1124.3646044649709 520.0970848299526 1132.4547499911614 520.0970848299526L1132.4547499911614 520.0970848299526ZM1277.0002112763827 444.19181009130455Q1289.376071288119 444.19181009130455 1296.5494864430696 451.6173260983462Q1303.7458198573013 459.0428421053879 1303.7458198573013 471.9229038213058L1303.7458198573013 471.9229038213058L1303.7458198573013 527.2017452070604Q1303.7458198573013 528.8518598752919 1302.09570518907 528.8518598752919L1302.09570518907 528.8518598752919L1293.8451318479124 528.8518598752919Q1292.1950171796807 528.8518598752919 1292.1950171796807 527.2017452070604L1292.1950171796807 527.2017452070604L1292.1950171796807 474.2376480086861Q1292.1950171796807 465.16201733341296 1286.9925723228955 459.79914466166065Q1281.7901274661103 454.43627198990833 1273.3791263099858 454.43627198990833L1273.3791263099858 454.43627198990833Q1264.6243512646465 454.43627198990833 1259.2614785928945 459.70747162453665Q1253.898605921142 465.001589518446 1253.898605921142 473.8938741194712L1253.898605921142 473.8938741194712L1253.898605921142 527.2017452070604Q1253.898605921142 528.8518598752919 1252.2484912529105 528.8518598752919L1252.2484912529105 528.8518598752919L1243.8374900967863 528.8518598752919Q1242.1873754285548 528.8518598752919 1242.1873754285548 527.2017452070604L1242.1873754285548 527.2017452070604L1242.1873754285548 474.2376480086861Q1242.1873754285548 465.16201733341296 1237.0766036088935 459.79914466166065Q1231.965831789232 454.43627198990833 1223.3714845588597 454.43627198990833L1223.3714845588597 454.43627198990833Q1214.6396277728013 454.43627198990833 1209.4371829160161 459.70747162453665Q1204.2347380592307 465.001589518446 1204.2347380592307 473.8938741194712L1204.2347380592307 473.8938741194712L1204.2347380592307 527.2017452070604Q1204.2347380592307 528.8518598752919 1202.5846233909992 528.8518598752919L1202.5846233909992 528.8518598752919L1194.173622234875 528.8518598752919Q1192.5235075666433 528.8518598752919 1192.5235075666433 527.2017452070604L1192.5235075666433 527.2017452070604L1192.5235075666433 447.01075598286667Q1192.5235075666433 445.3606413146352 1194.173622234875 445.3606413146352L1194.173622234875 445.3606413146352L1202.5846233909992 445.3606413146352Q1204.2347380592307 445.3606413146352 1204.2347380592307 447.01075598286667L1204.2347380592307 447.01075598286667L1204.2347380592307 453.6112146557926Q1204.2347380592307 453.93207028572647 1204.4868389113217 454.02374332285046Q1204.7389397634126 454.09249810069343 1205.0597953933463 453.77164247075956L1205.0597953933463 453.77164247075956Q1208.6808803597432 448.981726281032 1214.3875269207103 446.5982273158088Q1220.0712552223968 444.19181009130455 1227.0154877845375 444.19181009130455L1227.0154877845375 444.19181009130455Q1235.5869167556289 444.19181009130455 1241.6831737243729 447.67538550201544Q1247.802348952398 451.1360426534454 1250.942150473894 457.7365013263713L1250.942150473894 457.7365013263713Q1251.2630061038278 458.56155866048704 1251.7672078080095 457.7365013263713L1251.7672078080095 457.7365013263713Q1255.3882927744066 450.9756148384784 1261.9887514473326 447.5837124648915Q1268.5892101202585 444.19181009130455 1277.0002112763827 444.19181009130455L1277.0002112763827 444.19181009130455ZM1413.4784452946947 444.19181009130455Q1425.854305306431 444.19181009130455 1433.0277204613815 451.6173260983462Q1440.2011356163323 459.0428421053879 1440.2011356163323 471.9229038213058L1440.2011356163323 471.9229038213058L1440.2011356163323 527.2017452070604Q1440.2011356163323 528.8518598752919 1438.5510209481008 528.8518598752919L1438.5510209481008 528.8518598752919L1430.3004476069434 528.8518598752919Q1428.650332938712 528.8518598752919 1428.650332938712 527.2017452070604L1428.650332938712 527.2017452070604L1428.650332938712 474.2376480086861Q1428.650332938712 465.16201733341296 1423.4478880819265 459.79914466166065Q1418.2454432251411 454.43627198990833 1409.8344420690169 454.43627198990833L1409.8344420690169 454.43627198990833Q1401.1025852829587 454.43627198990833 1395.7397126112062 459.70747162453665Q1390.376839939454 465.001589518446 1390.376839939454 473.8938741194712L1390.376839939454 473.8938741194712L1390.376839939454 527.2017452070604Q1390.376839939454 528.8518598752919 1388.7267252712224 528.8518598752919L1388.7267252712224 528.8518598752919L1380.292805855817 528.8518598752919Q1378.6426911875856 528.8518598752919 1378.6426911875856 527.2017452070604L1378.6426911875856 527.2017452070604L1378.6426911875856 474.2376480086861Q1378.6426911875856 465.16201733341296 1373.5319193679243 459.79914466166065Q1368.421147548263 454.43627198990833 1359.8497185771716 454.43627198990833L1359.8497185771716 454.43627198990833Q1351.0949435318323 454.43627198990833 1345.8924986750471 459.70747162453665Q1340.6900538182617 465.001589518446 1340.6900538182617 473.8938741194712L1340.6900538182617 473.8938741194712L1340.6900538182617 527.2017452070604Q1340.6900538182617 528.8518598752919 1339.03993915003 528.8518598752919L1339.03993915003 528.8518598752919L1330.6289379939058 528.8518598752919Q1328.9788233256743 528.8518598752919 1328.9788233256743 527.2017452070604L1328.9788233256743 527.2017452070604L1328.9788233256743 447.01075598286667Q1328.9788233256743 445.3606413146352 1330.6289379939058 445.3606413146352L1330.6289379939058 445.3606413146352L1339.03993915003 445.3606413146352Q1340.6900538182617 445.3606413146352 1340.6900538182617 447.01075598286667L1340.6900538182617 447.01075598286667L1340.6900538182617 453.6112146557926Q1340.6900538182617 453.93207028572647 1340.9421546703525 454.02374332285046Q1341.1942555224437 454.09249810069343 1341.5151111523774 453.77164247075956L1341.5151111523774 453.77164247075956Q1345.1591143780552 448.981726281032 1350.8428426797414 446.5982273158088Q1356.5494892407087 444.19181009130455 1363.4708035435685 444.19181009130455L1363.4708035435685 444.19181009130455Q1372.0422325146596 444.19181009130455 1378.1614077426848 447.67538550201544Q1384.2576647114288 451.1360426534454 1387.397466232925 457.7365013263713L1387.397466232925 457.7365013263713Q1387.7183218628588 458.56155866048704 1388.2225235670408 457.7365013263713L1388.2225235670408 457.7365013263713Q1391.8436085334374 450.9756148384784 1398.4440672063633 447.5837124648915Q1405.0445258792893 444.19181009130455 1413.4784452946947 444.19181009130455L1413.4784452946947 444.19181009130455ZM1473.3638567959288 430.16583541133696Q1469.398997940317 430.16583541133696 1466.7633981230028 427.5302355940228Q1464.1277983056887 424.89463577670864 1464.1277983056887 420.9297769210969L1464.1277983056887 420.9297769210969Q1464.1277983056887 416.8044902505182 1466.7633981230028 414.260563470328Q1469.398997940317 411.69371843085685 1473.3638567959288 411.69371843085685L1473.3638567959288 411.69371843085685Q1477.3287156515405 411.69371843085685 1479.9643154688547 414.260563470328Q1482.5999152861689 416.8044902505182 1482.5999152861689 420.9297769210969L1482.5999152861689 420.9297769210969Q1482.5999152861689 424.89463577670864 1479.9643154688547 427.5302355940228Q1477.3287156515405 430.16583541133696 1473.3638567959288 430.16583541133696L1473.3638567959288 430.16583541133696ZM1468.7572866804492 528.6914320603248Q1467.1071720122177 528.6914320603248 1467.1071720122177 527.0413173920933L1467.1071720122177 527.0413173920933L1467.1071720122177 446.8503281678997Q1467.1071720122177 445.2002134996682 1468.7572866804492 445.2002134996682L1468.7572866804492 445.2002134996682L1477.1682878365737 445.2002134996682Q1478.818402504805 445.2002134996682 1478.818402504805 446.8503281678997L1478.818402504805 446.8503281678997L1478.818402504805 527.0413173920933Q1478.818402504805 528.6914320603248 1477.1682878365737 528.6914320603248L1477.1682878365737 528.6914320603248L1468.7572866804492 528.6914320603248ZM1542.1873894167502 444.19181009130455Q1555.388306762602 444.19181009130455 1563.2263514367014 451.9610999875611Q1571.064396110801 459.70747162453665 1571.064396110801 472.74796115542154L1571.064396110801 472.74796115542154L1571.064396110801 527.2017452070604Q1571.064396110801 528.8518598752919 1569.4142814425695 528.8518598752919L1569.4142814425695 528.8518598752919L1560.9803620271641 528.8518598752919Q1559.3302473589326 528.8518598752919 1559.3302473589326 527.2017452070604L1559.3302473589326 527.2017452070604L1559.3302473589326 475.06270534280185Q1559.3302473589326 465.9870746675287 1553.8069468722133 460.2116733287185Q1548.2836463854942 454.43627198990833 1539.5288713401549 454.43627198990833L1539.5288713401549 454.43627198990833Q1530.4532406648818 454.43627198990833 1524.8611854003195 460.05124551375155Q1519.2462118764765 465.6433007783138 1519.2462118764765 474.71893145358695L1519.2462118764765 474.71893145358695L1519.2462118764765 527.2017452070604Q1519.2462118764765 528.8518598752919 1517.5960972082448 528.8518598752919L1517.5960972082448 528.8518598752919L1509.1850960521206 528.8518598752919Q1507.534981383889 528.8518598752919 1507.534981383889 527.2017452070604L1507.534981383889 527.2017452070604L1507.534981383889 447.01075598286667Q1507.534981383889 445.3606413146352 1509.1850960521206 445.3606413146352L1509.1850960521206 445.3606413146352L1517.5960972082448 445.3606413146352Q1519.2462118764765 445.3606413146352 1519.2462118764765 447.01075598286667L1519.2462118764765 447.01075598286667L1519.2462118764765 454.09249810069343Q1519.2462118764765 454.43627198990833 1519.4983127285673 454.5966998048753Q1519.7274953213773 454.7571276198422 1519.910841395625 454.43627198990833L1519.910841395625 454.43627198990833Q1527.1530113284189 444.19181009130455 1542.1873894167502 444.19181009130455L1542.1873894167502 444.19181009130455ZM1647.9551559985316 447.01075598286667Q1647.9551559985316 445.3606413146352 1649.6052706667633 445.3606413146352L1649.6052706667633 445.3606413146352L1658.0162718228876 445.3606413146352Q1659.666386491119 445.3606413146352 1659.666386491119 447.01075598286667L1659.666386491119 447.01075598286667L1659.666386491119 526.0558322430107Q1659.666386491119 544.5279492234909 1649.0323141847384 553.0993781945822Q1638.3753236190767 561.6937254249544 1619.7427788236296 561.6937254249544L1619.7427788236296 561.6937254249544Q1615.938347782985 561.6937254249544 1613.9673774848195 561.5332976099876L1613.9673774848195 561.5332976099876Q1612.317262816588 561.3499515357396 1612.317262816588 559.6998368675081L1612.317262816588 559.6998368675081L1612.638118446522 552.1138930454995Q1612.638118446522 551.2888357113839 1613.1423201507037 550.8763070443258Q1613.6236035956044 550.463778377268 1614.2882331147532 550.6242061922351L1614.2882331147532 550.6242061922351L1618.734375415266 550.8075522664828Q1634.0896091335312 550.8075522664828 1641.010923436391 544.7800500755818Q1647.9551559985316 538.7525478846808 1647.9551559985316 525.7120583537958L1647.9551559985316 525.7120583537958L1647.9551559985316 519.6158013850518Q1647.9551559985316 519.2720274958369 1647.7030551464409 519.203272717994Q1647.45095429435 519.1115996808699 1647.130098664416 519.4553735700848L1647.130098664416 519.4553735700848Q1639.5441548424074 529.3560615794737 1625.5181801624399 529.3560615794737L1625.5181801624399 529.3560615794737Q1614.7924348189354 529.3560615794737 1606.4501884406536 523.5806602406635Q1598.1079420623723 517.8052589018533 1595.3119144300913 507.2399413733157L1595.3119144300913 507.2399413733157Q1593.3409441319259 500.4790548854228 1593.3409441319259 487.094791465323L1593.3409441319259 487.094791465323Q1593.3409441319259 479.8526215325293 1593.753472798984 474.9022775278349Q1594.1660014660415 469.95193352314044 1595.4723422450584 465.9870746675287L1595.4723422450584 465.9870746675287Q1598.4517159515874 456.0863866581398 1606.1980875885629 450.05888446723867Q1613.9673774848195 444.03138227633764 1624.8535506432909 444.03138227633764L1624.8535506432909 444.03138227633764Q1639.5441548424074 444.03138227633764 1647.130098664416 453.77164247075956L1647.130098664416 453.77164247075956Q1647.45095429435 454.09249810069343 1647.7030551464409 453.93207028572647Q1647.9551559985316 453.77164247075956 1647.9551559985316 453.45078684082563L1647.9551559985316 453.45078684082563L1647.9551559985316 447.01075598286667ZM1647.130098664416 503.5959381476378Q1647.6113821093168 501.1207661452906 1647.794728183565 497.49968117889375Q1647.9551559985316 493.8785962124969 1647.9551559985316 486.9343636503561L1647.9551559985316 486.9343636503561Q1647.9551559985316 478.5233624942317 1647.794728183565 475.6356618248266Q1647.6113821093168 472.74796115542154 1646.969670849449 470.2727891530743L1646.969670849449 470.2727891530743Q1645.6404118111514 463.3514748502145 1640.4379669543662 458.81365951257794Q1635.2355220975808 454.27584417494137 1627.3287226456382 454.27584417494137L1627.3287226456382 454.27584417494137Q1619.5594327493818 454.27584417494137 1614.1965600776293 458.721986475454Q1608.8336874058768 463.1681287759666 1606.7022892927448 470.2727891530743L1606.7022892927448 470.2727891530743Q1605.052174624513 475.5439887877027 1605.052174624513 486.7739358353891L1605.052174624513 486.7739358353891Q1605.052174624513 498.8289402171913 1606.7022892927448 503.43551033267084L1606.7022892927448 503.43551033267084Q1608.352403960976 510.37974289481167 1613.8757044476956 514.9175582324483Q1619.3990049344147 519.4553735700848 1627.3287226456382 519.4553735700848L1627.3287226456382 519.4553735700848Q1635.4188681718288 519.4553735700848 1640.598394769333 514.9863130102913Q1645.8008396261184 510.54017070977864 1647.130098664416 503.5959381476378L1647.130098664416 503.5959381476378ZM1789.704589651472 413.34383309908833Q1791.3547043197036 413.34383309908833 1791.3547043197036 414.99394776731975L1791.3547043197036 414.99394776731975L1791.3547043197036 422.09860814442754Q1791.3547043197036 423.748722812659 1789.704589651472 423.748722812659L1789.704589651472 423.748722812659L1757.3440075467101 423.748722812659Q1756.7022962868423 423.748722812659 1756.7022962868423 424.3904340725268L1756.7022962868423 424.3904340725268L1756.7022962868423 527.2017452070604Q1756.7022962868423 528.8518598752919 1755.052181618611 528.8518598752919L1755.052181618611 528.8518598752919L1746.6182622032056 528.8518598752919Q1744.968147534974 528.8518598752919 1744.968147534974 527.2017452070604L1744.968147534974 527.2017452070604L1744.968147534974 424.3904340725268Q1744.968147534974 423.748722812659 1744.326436275106 423.748722812659L1744.326436275106 423.748722812659L1713.295113208642 423.748722812659Q1711.6449985404106 423.748722812659 1711.6449985404106 422.09860814442754L1711.6449985404106 422.09860814442754L1711.6449985404106 414.99394776731975Q1711.6449985404106 413.34383309908833 1713.295113208642 413.34383309908833L1713.295113208642 413.34383309908833L1789.704589651472 413.34383309908833ZM1855.0445468615826 447.01075598286667Q1855.0445468615826 445.3606413146352 1856.6946615298139 445.3606413146352L1856.6946615298139 445.3606413146352L1865.1056626859381 445.3606413146352Q1866.7557773541698 445.3606413146352 1866.7557773541698 447.01075598286667L1866.7557773541698 447.01075598286667L1866.7557773541698 527.2017452070604Q1866.7557773541698 528.8518598752919 1865.1056626859381 528.8518598752919L1865.1056626859381 528.8518598752919L1856.6946615298139 528.8518598752919Q1855.0445468615826 528.8518598752919 1855.0445468615826 527.2017452070604L1855.0445468615826 527.2017452070604L1855.0445468615826 520.0970848299526Q1855.0445468615826 519.7762292000186 1854.7007729723673 519.6158013850518Q1854.3799173424336 519.4553735700848 1854.2194895274665 519.7762292000186L1854.2194895274665 519.7762292000186Q1847.2752569653258 529.9977728393415 1832.2637971362756 529.9977728393415L1832.2637971362756 529.9977728393415Q1824.3569976843332 529.9977728393415 1817.6648659742832 526.7892165400025Q1810.9727342642332 523.5806602406635 1807.0995484457453 517.4614850126384Q1803.226362627258 511.3652280438944 1803.226362627258 502.77088081352207L1803.226362627258 502.77088081352207L1803.226362627258 447.01075598286667Q1803.226362627258 445.3606413146352 1804.8764772954892 445.3606413146352L1804.8764772954892 445.3606413146352L1813.2874784516134 445.3606413146352Q1814.9375931198451 445.3606413146352 1814.9375931198451 447.01075598286667L1814.9375931198451 447.01075598286667L1814.9375931198451 499.31022366209214Q1814.9375931198451 508.7296282265802 1820.2317110137542 514.2529287132995Q1825.5029106483826 519.7762292000186 1834.5785413236558 519.7762292000186L1834.5785413236558 519.7762292000186Q1843.9750276288628 519.7762292000186 1849.521246374863 514.1612556761754Q1855.0445468615826 508.54628215233225 1855.0445468615826 499.31022366209214L1855.0445468615826 499.31022366209214L1855.0445468615826 447.01075598286667ZM1930.4456198960488 453.45078684082563Q1930.4456198960488 455.1009015090571 1928.795505227817 455.1009015090571L1928.795505227817 455.1009015090571L1910.1629604323698 455.1009015090571Q1909.4983309132213 455.1009015090571 1909.4983309132213 455.7426127689249L1909.4983309132213 455.7426127689249L1909.4983309132213 504.42099548175355Q1909.4983309132213 512.3507131929771 1913.050661101775 515.559269492316Q1916.580073031048 518.790744050936 1924.1889351123377 518.790744050936L1924.1889351123377 518.790744050936L1928.3142217829163 518.790744050936Q1929.964336451148 518.790744050936 1929.964336451148 520.4408587191675L1929.964336451148 520.4408587191675L1929.964336451148 527.2017452070604Q1929.964336451148 528.8518598752919 1928.3142217829163 528.8518598752919L1928.3142217829163 528.8518598752919Q1926.3203332254698 529.0122876902587 1922.1950465548912 529.0122876902587L1922.1950465548912 529.0122876902587Q1910.3233882473369 529.0122876902587 1904.2042130193117 524.5661453897462Q1898.1079560505677 520.0970848299526 1898.1079560505677 508.0649987074314L1898.1079560505677 508.0649987074314L1898.1079560505677 455.7426127689249Q1898.1079560505677 455.1009015090571 1897.4433265314187 455.1009015090571L1897.4433265314187 455.1009015090571L1887.3822107070632 455.1009015090571Q1885.732096038832 455.1009015090571 1885.732096038832 453.45078684082563L1885.732096038832 453.45078684082563L1885.732096038832 447.01075598286667Q1885.732096038832 445.3606413146352 1887.3822107070632 445.3606413146352L1887.3822107070632 445.3606413146352L1897.4433265314187 445.3606413146352Q1898.1079560505677 445.3606413146352 1898.1079560505677 444.6960117954864L1898.1079560505677 444.6960117954864L1898.1079560505677 425.5592652958575Q1898.1079560505677 423.909150627626 1899.7580707187994 423.909150627626L1899.7580707187994 423.909150627626L1907.8482162449895 423.909150627626Q1909.4983309132213 423.909150627626 1909.4983309132213 425.5592652958575L1909.4983309132213 425.5592652958575L1909.4983309132213 444.6960117954864Q1909.4983309132213 445.3606413146352 1910.1629604323698 445.3606413146352L1910.1629604323698 445.3606413146352L1928.795505227817 445.3606413146352Q1930.4456198960488 445.3606413146352 1930.4456198960488 447.01075598286667L1930.4456198960488 447.01075598286667L1930.4456198960488 453.45078684082563ZM1982.4242319453401 530.1811189135894Q1970.5525736377863 530.1811189135894 1961.9582264074138 524.0619436855643Q1953.3867974363225 517.9656867168203 1950.0865680998595 507.2399413733157L1950.0865680998595 507.2399413733157Q1947.7718239124792 499.65399755130704 1947.7718239124792 486.9343636503561L1947.7718239124792 486.9343636503561Q1947.7718239124792 474.2376480086861 1950.0865680998595 466.81213200164444L1950.0865680998595 466.81213200164444Q1953.2263696213554 456.2468144731068 1961.7977985924467 450.15055750436267Q1970.3921458228187 444.03138227633764 1982.5846597603072 444.03138227633764L1982.5846597603072 444.03138227633764Q1994.3188085121756 444.03138227633764 2002.7985644461428 450.15055750436267Q2011.3012386393912 456.2468144731068 2014.441040160887 466.6517041866775L2014.441040160887 466.6517041866775Q2016.7557843482673 473.73344630450424 2016.7557843482673 486.9343636503561L2016.7557843482673 486.9343636503561Q2016.7557843482673 500.29570881117485 2014.441040160887 507.2399413733157L2014.441040160887 507.2399413733157Q2011.3012386393912 517.9656867168203 2002.7985644461428 524.0619436855643Q1994.3188085121756 530.1811189135894 1982.4242319453401 530.1811189135894L1982.4242319453401 530.1811189135894ZM1982.4242319453401 519.9366570149857Q1990.3539496565636 519.9366570149857 1995.9689231804068 515.559269492316Q2001.5609784449694 511.2048002289274 2003.5548670024154 503.77928422188575L2003.5548670024154 503.77928422188575Q2005.04455385568 497.8205368088276 2005.04455385568 487.094791465323L2005.04455385568 487.094791465323Q2005.04455385568 476.20861830685146 2003.7152948173825 470.4332169680413L2003.7152948173825 470.4332169680413Q2001.7443245192171 463.0077009609996 1996.0376779582498 458.63031343833Q1990.3539496565636 454.27584417494137 1982.2638041303735 454.27584417494137L1982.2638041303735 454.27584417494137Q1974.1736586041825 454.27584417494137 1968.5586850803397 458.63031343833Q1962.9666298157772 463.0077009609996 1960.9727412583306 470.4332169680413L1960.9727412583306 470.4332169680413Q1959.6664004793147 476.20861830685146 1959.6664004793147 487.094791465323L1959.6664004793147 487.094791465323Q1959.6664004793147 498.00388288307556 1960.9727412583306 503.77928422188575L1960.9727412583306 503.77928422188575Q1962.7832837415294 511.2048002289274 1968.4899303024963 515.559269492316Q1974.1736586041825 519.9366570149857 1982.4242319453401 519.9366570149857L1982.4242319453401 519.9366570149857ZM2074.166023847154 444.53558398051945Q2079.62056955603 444.53558398051945 2083.585428411642 446.66698209365177L2083.585428411642 446.66698209365177Q2084.891769190659 447.33161161280054 2084.570913560725 448.8212984660651L2084.570913560725 448.8212984660651L2082.7603710775265 456.91144399225556Q2082.2561693733446 458.56155866048704 2080.6060547051134 457.89692914133826L2080.6060547051134 457.89692914133826Q2077.810027072832 456.7510161772886 2074.166023847154 456.7510161772886L2074.166023847154 456.7510161772886L2072.034625734022 456.91144399225556Q2063.4402785036496 457.23229962218943 2057.8482232390875 463.2598018130905Q2052.2332497152443 469.28730400399166 2052.2332497152443 478.5233624942317L2052.2332497152443 478.5233624942317L2052.2332497152443 527.2017452070604Q2052.2332497152443 528.8518598752919 2050.5831350470125 528.8518598752919L2050.5831350470125 528.8518598752919L2042.1721338908883 528.8518598752919Q2040.522019222657 528.8518598752919 2040.522019222657 527.2017452070604L2040.522019222657 527.2017452070604L2040.522019222657 447.01075598286667Q2040.522019222657 445.3606413146352 2042.1721338908883 445.3606413146352L2042.1721338908883 445.3606413146352L2050.5831350470125 445.3606413146352Q2052.2332497152443 445.3606413146352 2052.2332497152443 447.01075598286667L2052.2332497152443 447.01075598286667L2052.2332497152443 457.0718718072225Q2052.2332497152443 457.57607351140433 2052.4853505673354 457.6448282892473Q2052.714533160145 457.7365013263713 2052.897879234393 457.3927274371564L2052.897879234393 457.3927274371564Q2056.358536385823 451.29647046841234 2061.7214090575753 447.9045680948254Q2067.0842817293274 444.53558398051945 2074.166023847154 444.53558398051945L2074.166023847154 444.53558398051945Z " fill="#66cc8a" transform="matrix(0.41973793022881667,0,0,0.41973793022881656,0,95.7161746334526)"/></g></svg>