<svg xmlns="http://www.w3.org/2000/svg" version="1.1" xmlns:xlink="http://www.w3.org/1999/xlink" xmlns:svgjs="http://svgjs.dev/svgjs" width="2000" height="1500" viewBox="0 0 2000 1500"><rect width="2000" height="1500" fill="#ffffff"></rect><g transform="matrix(0.75,0,0,0.75,249.090909090909,669.5341901937029)"><svg viewBox="0 0 396 43" data-background-color="#ffffff" preserveAspectRatio="xMidYMid meet" height="217" width="2000" xmlns="http://www.w3.org/2000/svg" xmlns:xlink="http://www.w3.org/1999/xlink"><g id="tight-bounds" transform="matrix(1,0,0,1,0.2400000000000091,-0.24021614948833303)"><svg viewBox="0 0 395.52 43.480432298976645" height="43.480432298976645" width="395.52"><g><svg viewBox="0 0 526.5311952147563 57.88279729681044" height="43.480432298976645" width="395.52"><g><rect width="3.7770842223394903" height="42.09277227445332" x="117.3464559601145" y="7.89501251117856" fill="#66cc8a" opacity="1" stroke-width="0" stroke="transparent" fill-opacity="1" class="rect-yte-0" data-fill-palette-color="primary" rx="1%" id="yte-0" data-palette-color="#66cc8a"></rect></g><g transform="matrix(1,0,0,1,131.01119521475633,7.99972089992098)"><svg viewBox="0 0 395.52 41.88335549696848" height="41.88335549696848" width="395.52"><g id="textblocktransform"><svg viewBox="0 0 395.52 41.88335549696848" height="41.88335549696848" width="395.52" id="textblock"><g><svg viewBox="0 0 395.52 41.88335549696848" height="41.88335549696848" width="395.52"><g transform="matrix(1,0,0,1,0,0)"><svg width="395.52" viewBox="4.45 -35.8 439.0766796875 46.5" height="41.88335549696848" data-palette-color="#66cc8a"><g transform="matrix(1,0,0,1,0,0)"><g><svg width="16.344453124999998" viewBox="1.78 -36.36 74.21 36.36" height="8.008" data-palette-color="#66cc8a" id="scriptelement" x="427.1822265625" y="-35.8"><path d="M12.91-30.02L1.78-30.02 1.78-36.36 31.64-36.36 31.64-30.02 20.51-30.02 20.51 0 12.91 0 12.91-30.02ZM36.57 0L36.57-36.36 46.06-36.36 56.07-11.93 56.5-11.93 66.51-36.36 75.99-36.36 75.99 0 68.53 0 68.53-23.67 68.23-23.67 58.82-0.18 53.74-0.18 44.33-23.76 44.03-23.76 44.03 0 36.57 0Z" opacity="1" transform="matrix(1,0,0,1,0,0)" fill="#66cc8a" class="undefined-123" data-fill-palette-color="primary" id="tk-123"></path></svg></g></g><path d="M20.25-15.15L9-15.15 9 0 4.45 0 4.45-35.8 19.25-35.8Q24.9-35.8 27.75-32.7L27.75-32.7Q30.25-30 30.25-25.3L30.25-25.3Q30.25-20.55 27.2-17.75L27.2-17.75Q24.4-15.15 20.25-15.15L20.25-15.15ZM9-31.75L9-19.2 18.55-19.2Q21.8-19.2 23.65-20.85 25.5-22.5 25.5-25.5L25.5-25.5Q25.5-28.45 23.65-30.1 21.8-31.75 18.55-31.75L18.55-31.75 9-31.75ZM36.15 0L36.15-25.7 39.95-25.7 39.95-21Q42.2-26.3 47.05-26.3L47.05-26.3Q47.65-26.3 48.5-26.15L48.5-26.15 48.5-21.95Q44.5-21.9 43-20.8L43-20.8Q40.25-18.8 40.25-13.35L40.25-13.35 40.25 0 36.15 0ZM62.6-26.25L62.6-26.25Q68.4-26.25 71.45-22.2L71.45-22.2Q74.15-18.7 74.15-12.7L74.15-12.7Q74.15-6 70.65-2.5L70.65-2.5Q67.65 0.55 62.55 0.55L62.55 0.55Q56.65 0.55 53.55-3.4L53.55-3.4Q50.85-6.85 50.85-12.7L50.85-12.7Q50.85-19.5 54.4-23.15L54.4-23.15Q57.45-26.25 62.6-26.25ZM62.6-22.5L62.6-22.5Q59.1-22.5 57.1-19.88 55.1-17.25 55.1-12.7L55.1-12.7Q55.1-7.95 57.35-5.45L57.35-5.45Q59.3-3.25 62.55-3.25L62.55-3.25Q66-3.25 67.92-5.75 69.84-8.25 69.84-12.7L69.84-12.7Q69.84-17.6 67.65-20.2L67.65-20.2Q65.75-22.5 62.6-22.5ZM96.59-21.85L96.59-25.7 100.39-25.7 100.39-4.2Q100.39 4.15 97.69 7.4L97.69 7.4Q94.99 10.7 88.84 10.7L88.84 10.7Q84.04 10.7 81.34 8.4L81.34 8.4Q78.94 6.35 78.64 2.95L78.64 2.95 82.84 2.95Q83.14 4.95 84.34 5.9L84.34 5.9Q86.09 7.25 89.04 7.25L89.04 7.25Q93.04 7.25 94.74 4.85L94.74 4.85Q96.19 2.8 96.19-2.15L96.19-2.15 96.19-3.8Q92.99 0.55 88.49 0.55L88.49 0.55Q84.09 0.55 81.04-2.75L81.04-2.75Q77.79-6.3 77.79-12.45L77.79-12.45Q77.79-19.05 81.19-22.95L81.19-22.95Q84.19-26.25 88.74-26.25L88.74-26.25Q93.64-26.25 96.59-21.85L96.59-21.85ZM89.19-22.5L89.19-22.5Q85.89-22.5 83.97-19.88 82.04-17.25 82.04-12.7L82.04-12.7Q82.04-7.95 84.24-5.45L84.24-5.45Q86.09-3.25 89.24-3.25L89.24-3.25Q92.54-3.25 94.37-5.75 96.19-8.25 96.19-12.7L96.19-12.7Q96.19-17.6 94.09-20.2L94.09-20.2Q92.24-22.5 89.19-22.5ZM107.09 0L107.09-25.7 110.89-25.7 110.89-21Q113.14-26.3 117.99-26.3L117.99-26.3Q118.59-26.3 119.44-26.15L119.44-26.15 119.44-21.95Q115.44-21.9 113.94-20.8L113.94-20.8Q111.19-18.8 111.19-13.35L111.19-13.35 111.19 0 107.09 0ZM146.29-3.45L146.29-3.45 146.29-0.15Q144.59 0.45 143.64 0.45L143.64 0.45Q139.64 0.45 139.29-3.2L139.29-3.2Q136.54 0.55 130.54 0.55L130.54 0.55Q126.39 0.55 124.09-1.75L124.09-1.75Q122.09-3.75 122.09-6.9L122.09-6.9Q122.09-10.5 124.64-12.45L124.64-12.45Q126.09-13.55 130.69-14.6L130.69-14.6 139.09-16.5 139.14-18.65Q139.14-22.5 133.34-22.5L133.34-22.5Q127.79-22.5 127.39-18L127.39-18 123.24-18Q123.39-21.4 124.94-23.2L124.94-23.2Q127.59-26.25 133.54-26.25L133.54-26.25Q143.19-26.25 143.19-19.25L143.19-19.25 143.19-4.9Q143.19-3 144.84-3L144.84-3Q145.04-3 145.89-3.3L145.89-3.3Q146.19-3.4 146.29-3.45ZM139.14-8.65L139.14-13.15 132.54-11.45Q128.99-10.55 127.66-9.6 126.34-8.65 126.34-6.95L126.34-6.95Q126.34-3 131.44-3L131.44-3Q135.04-3 137.54-5.35L137.54-5.35Q139.14-6.8 139.14-8.65L139.14-8.65ZM150.79 0L150.79-25.7 154.59-25.7 154.59-22Q157.59-26.25 162.49-26.25L162.49-26.25Q167.24-26.25 169.39-22.45L169.39-22.45Q171.24-24.6 172.96-25.43 174.69-26.25 177.24-26.25L177.24-26.25Q184.74-26.25 184.74-19.2L184.74-19.2 184.74 0 180.64 0 180.64-17.6Q180.64-22.7 175.84-22.7L175.84-22.7Q173.34-22.7 171.59-20.75 169.84-18.8 169.84-16.1L169.84-16.1 169.84 0 165.74 0 165.74-17.6Q165.74-22.7 160.99-22.7L160.99-22.7Q158.44-22.7 156.66-20.78 154.89-18.85 154.89-16.1L154.89-16.1 154.89 0 150.79 0ZM191.68 0L191.68-25.7 195.48-25.7 195.48-22Q198.48-26.25 203.38-26.25L203.38-26.25Q208.13-26.25 210.28-22.45L210.28-22.45Q212.13-24.6 213.86-25.43 215.58-26.25 218.13-26.25L218.13-26.25Q225.63-26.25 225.63-19.2L225.63-19.2 225.63 0 221.53 0 221.53-17.6Q221.53-22.7 216.73-22.7L216.73-22.7Q214.23-22.7 212.48-20.75 210.73-18.8 210.73-16.1L210.73-16.1 210.73 0 206.63 0 206.63-17.6Q206.63-22.7 201.88-22.7L201.88-22.7Q199.33-22.7 197.56-20.78 195.78-18.85 195.78-16.1L195.78-16.1 195.78 0 191.68 0ZM232.38-25.7L236.43-25.7 236.43 0 232.38 0 232.38-25.7ZM234.48-35.75L234.48-35.75Q235.53-35.75 236.26-35.02 236.98-34.3 236.98-33.3L236.98-33.3Q236.98-32.25 236.26-31.53 235.53-30.8 234.48-30.8L234.48-30.8Q233.48-30.8 232.76-31.53 232.03-32.25 232.03-33.3L232.03-33.3Q232.03-34.3 232.76-35.02 233.48-35.75 234.48-35.75ZM243.48 0L243.48-25.7 247.28-25.7 247.28-21.35Q250.38-26.25 255.78-26.25L255.78-26.25Q259.53-26.25 261.73-24.38 263.93-22.5 263.93-19.35L263.93-19.35 263.93 0 259.88 0 259.88-17.7Q259.88-20 258.45-21.35 257.03-22.7 254.58-22.7L254.58-22.7Q251.38-22.7 249.48-20.35 247.58-18 247.58-14.1L247.58-14.1 247.58 0 243.48 0ZM287.53-21.85L287.53-25.7 291.33-25.7 291.33-4.2Q291.33 4.15 288.63 7.4L288.63 7.4Q285.93 10.7 279.78 10.7L279.78 10.7Q274.98 10.7 272.28 8.4L272.28 8.4Q269.88 6.35 269.58 2.95L269.58 2.95 273.78 2.95Q274.08 4.95 275.28 5.9L275.28 5.9Q277.03 7.25 279.98 7.25L279.98 7.25Q283.98 7.25 285.68 4.85L285.68 4.85Q287.13 2.8 287.13-2.15L287.13-2.15 287.13-3.8Q283.93 0.55 279.43 0.55L279.43 0.55Q275.03 0.55 271.98-2.75L271.98-2.75Q268.73-6.3 268.73-12.45L268.73-12.45Q268.73-19.05 272.13-22.95L272.13-22.95Q275.13-26.25 279.68-26.25L279.68-26.25Q284.58-26.25 287.53-21.85L287.53-21.85ZM280.13-22.5L280.13-22.5Q276.83-22.5 274.9-19.88 272.98-17.25 272.98-12.7L272.98-12.7Q272.98-7.95 275.18-5.45L275.18-5.45Q277.03-3.25 280.18-3.25L280.18-3.25Q283.48-3.25 285.3-5.75 287.13-8.25 287.13-12.7L287.13-12.7Q287.13-17.6 285.03-20.2L285.03-20.2Q283.18-22.5 280.13-22.5ZM332.92-31.75L321.22-31.75 321.22 0 316.67 0 316.67-31.75 304.87-31.75 304.87-35.8 332.92-35.8 332.92-31.75ZM357.47-25.7L357.47 0 353.42 0 353.42-4.05Q350.67 0.55 345.22 0.55L345.22 0.55Q341.47 0.55 339.24-1.33 337.02-3.2 337.02-6.35L337.02-6.35 337.02-25.7 341.07-25.7 341.07-8Q341.07-5.75 342.52-4.4 343.97-3.05 346.42-3.05L346.42-3.05Q349.62-3.05 351.52-5.38 353.42-7.7 353.42-11.65L353.42-11.65 353.42-25.7 357.47-25.7ZM369.37-25.7L374.62-25.7 374.62-22.4 369.37-22.4 369.37-5.3Q369.37-4.4 369.99-3.78 370.62-3.15 371.62-3.15L371.62-3.15Q372.57-3.15 374.52-3.6L374.52-3.6 374.97 0Q371.87 0.55 370.27 0.55L370.27 0.55Q365.32 0.55 365.32-3.5L365.32-3.5 365.32-22.4 361.82-22.4 361.82-25.7 365.32-25.7 365.32-30.95 369.37-32.8 369.37-25.7ZM389.46-26.25L389.46-26.25Q395.26-26.25 398.31-22.2L398.31-22.2Q401.01-18.7 401.01-12.7L401.01-12.7Q401.01-6 397.51-2.5L397.51-2.5Q394.51 0.55 389.41 0.55L389.41 0.55Q383.51 0.55 380.41-3.4L380.41-3.4Q377.71-6.85 377.71-12.7L377.71-12.7Q377.71-19.5 381.26-23.15L381.26-23.15Q384.31-26.25 389.46-26.25ZM389.46-22.5L389.46-22.5Q385.96-22.5 383.96-19.88 381.96-17.25 381.96-12.7L381.96-12.7Q381.96-7.95 384.21-5.45L384.21-5.45Q386.16-3.25 389.41-3.25L389.41-3.25Q392.86-3.25 394.79-5.75 396.71-8.25 396.71-12.7L396.71-12.7Q396.71-17.6 394.51-20.2L394.51-20.2Q392.61-22.5 389.46-22.5ZM406.66 0L406.66-25.7 410.46-25.7 410.46-21Q412.71-26.3 417.56-26.3L417.56-26.3Q418.16-26.3 419.01-26.15L419.01-26.15 419.01-21.95Q415.01-21.9 413.51-20.8L413.51-20.8Q410.76-18.8 410.76-13.35L410.76-13.35 410.76 0 406.66 0Z" opacity="1" transform="matrix(1,0,0,1,0,0)" fill="#66cc8a" class="wordmark-text-0" data-fill-palette-color="primary" id="text-0"></path></svg></g></svg></g></svg></g></svg></g><g><svg viewBox="0 0 107.45880092781216 57.88279729681044" height="57.88279729681044" width="107.45880092781216"><g><svg xmlns="http://www.w3.org/2000/svg" xmlns:xlink="http://www.w3.org/1999/xlink" version="1.1" x="0" y="0" viewBox="100.5 107.8 649.4 349.8" style="enable-background:new 0 -142.5 850.4 850.4;" xml:space="preserve" height="57.88279729681044" width="107.45880092781216" class="icon-icon-0" data-fill-palette-color="accent" id="icon-0"><polygon points="526.1,152 526.1,201.9 691.5,282.7 526.1,363.6 526.1,413.5 749.9,303.3 749.9,261.5 " fill="#66cc8a" data-fill-palette-color="accent"></polygon><polygon points="100.5,303.3 324.3,413.5 324.3,363.6 158.9,282.7 324.3,201.9 324.3,152 100.5,261.5 " fill="#66cc8a" data-fill-palette-color="accent"></polygon><polygon points="345.5,457.6 394.8,457.6 504.9,107.8 456,107.8 " fill="#66cc8a" data-fill-palette-color="accent"></polygon></svg></g></svg></g></svg></g><defs></defs></svg><rect width="395.52" height="43.480432298976645" fill="none" stroke="none" visibility="hidden"></rect></g></svg></g></svg>